<?xml version="1.0" standalone="no"?>
<!DOCTYPE svg PUBLIC "-//W3C//DTD SVG 20010904//EN"
 "http://www.w3.org/TR/2001/REC-SVG-20010904/DTD/svg10.dtd">
<svg version="1.0" xmlns="http://www.w3.org/2000/svg"
 width="661.000000pt" height="661.000000pt" viewBox="0 0 661.000000 661.000000"
 preserveAspectRatio="xMidYMid meet">
<metadata>
Created by potrace 1.14, written by Peter Selinger 2001-2017
</metadata>
<g transform="translate(0.000000,661.000000) scale(0.100000,-0.100000)"
fill="#000000" stroke="none">
<path d="M3385 4092 c-4 -4 -14 -7 -23 -8 -15 0 -120 -16 -132 -19 -3 -1 -12
-4 -20 -7 -8 -3 -37 -14 -65 -24 -27 -9 -67 -28 -87 -41 -21 -13 -38 -20 -38
-17 0 4 -11 -5 -24 -19 -13 -14 -26 -24 -29 -21 -6 6 -147 -133 -147 -146 0
-5 -4 -10 -8 -10 -5 0 -21 -22 -36 -50 -15 -27 -32 -50 -37 -50 -6 0 -8 -4 -5
-9 6 -9 -20 -81 -33 -91 -3 -3 -7 -10 -8 -16 -1 -6 -5 -24 -8 -40 -4 -16 -7
-35 -7 -41 -1 -7 -5 -13 -9 -13 -4 0 -7 -22 -6 -49 0 -37 3 -48 14 -44 7 3 13
0 13 -7 0 -10 3 -10 15 0 9 7 18 10 22 6 11 -11 40 44 37 70 -1 13 1 24 5 24
4 0 8 9 9 20 4 44 6 50 14 50 5 0 7 4 4 8 -7 11 59 137 72 137 6 0 14 3 18 7
4 4 12 4 18 0 13 -10 109 -34 148 -37 34 -3 60 -23 51 -38 -4 -6 -8 -25 -10
-42 -6 -48 -8 -59 -17 -73 -4 -7 -3 -19 3 -26 6 -7 8 -15 6 -18 -3 -3 -8 -16
-10 -29 -6 -30 20 -58 50 -54 15 1 22 -2 19 -9 -3 -6 1 -3 9 6 8 10 17 16 20
13 4 -3 5 -2 2 1 -2 4 0 15 5 25 7 12 7 20 0 24 -6 4 -7 11 -3 18 3 6 8 25 9
41 8 82 12 112 19 129 8 19 25 23 25 6 0 -7 5 -8 13 -2 13 9 146 9 172 0 8 -4
15 -3 15 1 0 4 14 7 30 8 17 1 30 -3 30 -8 0 -5 4 -6 10 -3 19 12 50 14 50 3
0 -7 4 -7 13 -1 18 15 45 12 53 -6 4 -9 9 -36 11 -61 4 -56 10 -103 13 -110 1
-3 2 -8 1 -12 0 -4 3 -18 8 -31 10 -25 59 -41 82 -26 11 6 19 106 10 115 -13
13 -23 156 -10 149 5 -4 9 -2 9 3 0 6 16 9 35 8 19 -1 36 2 37 6 2 4 17 9 33
12 17 2 30 5 30 6 0 1 10 3 22 6 12 2 26 5 30 6 19 5 54 -26 69 -60 22 -51 52
-141 58 -175 9 -49 18 -72 38 -94 21 -22 17 -43 -7 -43 -8 0 -19 -9 -25 -20
-7 -14 -7 -20 0 -20 5 0 10 -6 10 -13 0 -7 16 -50 35 -95 19 -45 31 -82 27
-82 -4 0 -1 -4 6 -9 8 -5 15 -20 15 -34 1 -14 5 -23 8 -21 4 2 10 -8 14 -24 4
-15 5 -27 3 -28 -2 0 5 -8 15 -18 9 -10 17 -24 17 -32 0 -8 4 -22 9 -32 15
-27 47 -103 62 -145 17 -49 31 -60 81 -62 41 -2 79 22 86 55 2 8 9 18 15 22 7
4 8 8 4 8 -4 0 -2 10 5 23 7 12 13 24 13 27 3 21 39 99 44 95 4 -2 7 6 7 18 1
12 12 45 26 74 26 52 43 102 40 116 -1 4 3 7 9 7 5 0 8 4 4 9 -3 5 2 17 11 25
8 9 12 16 8 16 -3 0 -1 6 5 14 6 8 11 18 10 22 -3 14 12 44 20 39 4 -2 7 6 7
18 -1 24 -30 46 -55 41 -58 -11 -71 -16 -66 -24 3 -6 1 -10 -4 -10 -6 0 -11
-4 -11 -9 0 -5 -5 -22 -11 -38 -6 -15 -11 -30 -11 -33 0 -3 -5 -14 -11 -25 -6
-11 -12 -23 -13 -27 -1 -5 -3 -10 -4 -13 -1 -3 -3 -8 -5 -12 -2 -9 -12 -34
-35 -88 -9 -22 -29 -75 -44 -117 l-28 -77 -25 30 c-14 16 -23 33 -20 36 4 3 0
18 -7 32 -34 66 -56 123 -51 132 4 5 1 9 -5 9 -7 0 -10 6 -7 14 3 8 1 16 -4
18 -6 2 -11 10 -13 18 -1 8 -8 25 -14 38 -7 12 -10 26 -7 31 3 5 0 11 -6 13
-6 2 -12 15 -12 30 -1 14 -5 24 -8 22 -3 -1 -12 12 -19 31 -7 19 -17 32 -21
29 -8 -5 -7 16 3 31 8 14 2 83 -11 124 -6 19 -8 38 -5 42 3 5 1 9 -4 9 -5 0
-9 6 -10 13 -2 21 -8 40 -25 81 -9 21 -17 42 -17 47 0 5 -3 9 -8 9 -4 0 -13
13 -20 29 -7 16 -23 41 -37 57 -13 15 -21 32 -18 37 3 6 1 7 -5 3 -7 -4 -12
-1 -12 9 0 9 -4 13 -10 10 -5 -3 -10 -2 -10 4 0 9 -67 82 -85 91 -6 3 -9 9 -7
13 1 5 -1 6 -6 3 -5 -3 -18 3 -29 14 -12 10 -23 17 -25 14 -3 -2 -17 7 -31 20
-15 14 -27 23 -27 20 0 -2 -22 7 -50 21 -27 14 -50 22 -50 19 0 -4 -7 -1 -15
6 -8 6 -24 13 -37 14 -13 2 -36 6 -53 9 -16 3 -50 9 -75 12 -25 3 -55 7 -67 9
-11 3 -24 1 -28 -2z m55 -124 c0 -4 3 -7 8 -6 12 4 62 -34 62 -47 0 -7 4 -15
9 -17 5 -1 11 -10 13 -18 2 -8 5 -17 9 -20 3 -3 15 -29 27 -58 33 -77 28 -79
-153 -80 -99 0 -155 4 -164 12 -12 9 -13 8 -6 -4 6 -12 5 -12 -5 -3 -9 9 -9
19 1 50 7 21 18 43 24 48 5 6 12 19 13 30 2 11 10 24 18 28 8 5 12 12 9 18 -4
5 1 12 9 15 9 3 16 12 16 19 0 7 15 20 33 28 33 16 77 19 77 5z m-235 -38 c3
-5 2 -10 -3 -10 -9 0 -25 -45 -20 -54 2 -2 -5 -12 -14 -22 -9 -11 -16 -23 -16
-27 1 -23 -26 -67 -38 -63 -8 3 -14 1 -14 -5 0 -6 -6 -6 -17 -1 -10 5 -26 8
-35 7 -10 -2 -18 0 -18 4 0 4 -6 8 -12 9 -20 1 -60 11 -65 16 -2 2 7 16 21 31
15 16 26 24 26 19 0 -5 5 -1 11 9 5 9 16 17 23 17 8 0 16 7 20 15 3 8 12 15
21 15 8 0 15 5 15 11 0 5 3 8 8 6 4 -2 21 4 37 14 34 20 61 24 70 9z m467 1
c2 -5 10 -11 18 -13 8 -2 40 -20 71 -40 31 -20 59 -34 63 -31 3 4 6 -1 6 -10
0 -9 5 -17 11 -17 6 0 16 -6 23 -13 16 -16 2 -30 -34 -35 -14 -2 -29 -7 -35
-11 -5 -4 -30 -6 -55 -6 -39 0 -46 3 -59 30 -8 17 -21 42 -28 58 -8 15 -12 27
-8 27 3 0 -1 13 -10 30 -8 16 -15 31 -15 35 0 9 48 5 52 -4z"/>
<path d="M3670 3341 c-8 -4 -22 -7 -30 -6 -8 0 -18 -3 -21 -8 -4 -5 -18 -10
-32 -10 -14 -1 -23 -6 -19 -11 3 -5 -4 -7 -16 -4 -12 3 -20 2 -19 -2 1 -5 -13
-20 -32 -34 -19 -14 -31 -26 -25 -26 5 -1 -2 -7 -16 -15 -14 -7 -24 -17 -22
-21 2 -5 -5 -11 -15 -15 -13 -5 -31 6 -65 40 -58 57 -75 71 -86 71 -5 0 -24 8
-43 17 -40 20 -164 26 -194 10 -11 -6 -22 -12 -25 -12 -14 -1 -90 -50 -90 -57
0 -4 -4 -7 -9 -6 -5 2 -8 0 -7 -3 0 -3 -11 -16 -25 -30 -26 -23 -70 -97 -77
-129 -9 -38 -17 -120 -12 -120 3 0 5 -12 4 -27 -2 -50 93 -203 126 -203 4 0
10 -3 12 -7 6 -14 90 -53 114 -53 13 0 24 -4 24 -8 0 -12 68 -14 90 -2 15 8
20 8 20 -2 0 -8 3 -9 8 -3 6 9 58 31 86 38 12 3 54 37 88 71 15 15 28 24 29
20 0 -5 4 -1 8 9 6 16 13 13 54 -26 27 -24 66 -52 88 -62 21 -10 39 -21 39
-24 0 -4 14 -8 32 -9 17 -2 36 -7 42 -11 9 -8 84 -8 94 0 1 1 7 3 12 4 6 1 11
3 13 5 3 2 40 11 55 12 6 1 12 5 12 10 0 4 6 8 14 8 8 0 22 7 30 16 9 8 16 13
16 10 0 -3 18 12 40 34 22 22 40 45 40 50 0 6 5 10 10 10 6 0 10 3 9 8 -2 12
13 52 20 52 8 0 12 39 13 105 0 61 -5 115 -12 115 -3 0 -12 15 -19 33 -8 17
-25 43 -37 56 -13 14 -20 29 -17 34 3 6 2 8 -3 5 -12 -6 -44 28 -36 38 4 4 2
4 -4 1 -6 -3 -27 5 -47 19 -20 14 -37 22 -37 18 0 -3 -6 -1 -13 5 -8 6 -17 8
-20 4 -4 -3 -7 -2 -7 3 0 5 -15 9 -32 9 -18 -1 -40 2 -48 6 -9 4 -22 4 -30 0z
m-447 -116 c9 -4 17 -11 17 -17 0 -5 4 -7 8 -4 23 14 122 -120 107 -144 -3 -5
-2 -11 3 -14 11 -6 9 -67 -2 -85 -7 -10 -5 -12 3 -6 10 6 11 3 2 -12 -6 -11
-7 -23 -4 -27 3 -3 1 -6 -5 -6 -7 0 -12 -9 -12 -19 0 -11 -11 -28 -25 -39 -14
-11 -25 -24 -25 -29 0 -5 -28 -22 -62 -38 -62 -29 -141 -37 -170 -18 -7 4 -19
8 -27 10 -8 1 -17 7 -21 13 -4 7 -9 10 -12 8 -2 -1 -19 9 -37 25 -18 15 -29
27 -25 27 4 0 0 6 -9 13 -10 7 -24 29 -31 50 -15 43 -13 162 3 181 6 7 8 16 4
19 -3 4 0 7 7 7 7 0 10 3 7 6 -9 9 83 95 94 89 5 -4 9 -1 9 5 0 6 4 9 9 5 5
-3 12 -1 15 4 7 10 153 7 179 -4z m552 7 c5 -4 19 -8 30 -9 11 -2 22 -8 23
-13 2 -6 9 -10 16 -10 13 0 46 -35 46 -50 0 -6 5 -10 10 -10 6 0 10 -9 10 -19
0 -11 5 -21 11 -23 6 -2 12 -18 14 -36 1 -18 4 -35 7 -37 8 -8 -1 -71 -14
-102 -6 -16 -11 -31 -10 -35 1 -5 -2 -8 -8 -8 -5 0 -10 -6 -10 -14 0 -7 -20
-30 -45 -50 -25 -21 -45 -34 -45 -31 0 4 -12 0 -26 -10 -26 -17 -134 -27 -134
-13 0 4 -16 10 -35 14 -31 5 -145 94 -122 94 5 0 1 7 -7 16 -18 17 -17 15 -21
104 -2 40 2 76 11 94 8 16 14 35 14 42 0 7 13 23 29 37 17 14 27 28 24 31 -6
5 5 8 23 5 4 0 10 3 13 8 18 26 165 44 196 25z"/>
<path d="M3112 3085 c4 -5 0 -14 -10 -22 -9 -8 -12 -12 -5 -9 6 4 13 1 15 -4
2 -7 9 -6 21 2 16 12 16 14 -5 27 -13 7 -20 10 -16 6z"/>
<path d="M3001 3040 c-27 -6 -37 -40 -21 -71 13 -24 41 -25 66 -1 18 15 20 22
15 50 -2 15 -37 28 -60 22z"/>
<path d="M3195 3034 c-10 -8 -15 -14 -9 -14 5 0 2 -5 -6 -10 -10 -6 -11 -10
-2 -10 6 0 12 -5 12 -11 0 -28 56 -46 72 -24 13 17 9 75 -4 76 -7 0 -20 2 -29
4 -8 1 -24 -4 -34 -11z"/>
<path d="M3115 2950 c-11 -5 -14 -9 -7 -9 7 -1 10 -5 7 -11 -3 -5 1 -10 9 -10
9 0 16 9 16 20 0 11 -1 20 -2 19 -2 0 -12 -4 -23 -9z"/>
<path d="M3676 3063 c-3 -8 -1 -11 4 -8 6 3 10 2 10 -3 0 -6 9 -8 21 -5 14 4
17 9 10 16 -16 16 -39 17 -45 0z"/>
<path d="M3560 3032 c-19 -21 -14 -52 12 -75 17 -14 23 -15 29 -5 5 7 9 9 9 4
0 -4 8 2 19 15 15 18 16 28 8 46 -6 13 -15 23 -21 24 -6 0 -18 2 -26 4 -8 1
-22 -5 -30 -13z"/>
<path d="M3790 3042 c-29 -10 -39 -34 -23 -58 32 -49 81 -37 80 20 -1 35 -22
49 -57 38z"/>
<path d="M3687 2949 c-9 -6 -15 -14 -12 -20 10 -15 42 -10 49 7 3 8 2 13 -3 9
-5 -3 -11 -1 -13 4 -2 6 -10 6 -21 0z"/>
<path d="M1470 3309 c0 -4 -9 -9 -19 -12 -17 -4 -19 -13 -17 -71 1 -37 -3 -68
-9 -70 -6 -3 -6 -5 0 -5 10 -1 11 -88 1 -98 -2 -2 0 -17 4 -33 4 -16 6 -31 3
-33 -10 -10 -8 -167 2 -171 6 -3 6 -5 0 -5 -15 -1 -8 -100 8 -114 6 -7 31 -12
53 -12 46 -1 44 -5 47 98 1 28 6 55 12 59 6 5 5 8 -4 8 -11 0 -11 3 -1 15 7 8
8 15 3 15 -5 0 -9 13 -8 29 0 16 3 27 7 24 5 -2 8 0 8 6 0 6 7 8 15 5 8 -4 12
-10 9 -15 -3 -5 1 -9 8 -9 7 0 24 -14 38 -31 14 -17 48 -55 77 -85 29 -30 49
-54 46 -54 -3 0 7 -10 23 -22 16 -13 31 -26 32 -30 2 -5 8 -6 13 -2 5 3 9 1 9
-4 0 -10 107 -8 117 2 4 3 1 6 -6 6 -7 0 -9 5 -6 10 3 6 -1 13 -9 16 -9 3 -16
12 -16 20 0 8 -8 14 -17 14 -9 0 -14 2 -11 5 3 3 -46 57 -108 119 -63 63 -114
118 -114 123 0 4 25 35 55 68 30 33 55 64 55 68 0 5 5 5 10 2 6 -3 10 -2 10 3
0 5 11 21 25 36 14 15 25 32 25 37 0 6 5 7 10 4 6 -3 10 -2 10 3 0 4 13 22 30
39 26 27 28 32 15 43 -8 7 -15 9 -15 4 0 -5 -24 -9 -54 -9 -49 0 -58 -3 -83
-32 -61 -68 -118 -137 -126 -150 -5 -7 -13 -10 -19 -7 -7 4 -8 2 -4 -4 4 -7 3
-12 -2 -12 -5 0 -13 -9 -18 -20 -6 -14 -13 -17 -23 -11 -11 7 -15 35 -16 108
-2 125 -6 138 -45 138 -16 0 -30 -3 -30 -6z"/>
<path d="M2060 3309 c-19 -3 -31 -7 -27 -8 4 0 4 -8 -1 -17 -5 -9 -6 -33 -2
-55 4 -21 5 -41 3 -43 -5 -4 -5 -449 -1 -486 2 -21 88 -22 104 -2 6 9 10 86 9
208 -2 196 4 229 33 198 7 -8 11 -14 8 -14 -3 0 6 -12 19 -26 14 -15 25 -33
25 -39 0 -7 7 -16 16 -19 9 -4 15 -9 12 -12 -3 -2 8 -19 23 -35 16 -17 29 -36
29 -43 0 -6 12 -19 26 -30 26 -18 26 -18 50 7 13 15 24 29 24 33 0 4 11 17 24
29 14 13 23 25 21 27 -2 2 12 22 33 44 20 23 37 44 37 47 0 4 8 16 19 28 26
30 34 12 33 -77 0 -39 3 -77 7 -83 4 -6 3 -11 -3 -11 -6 0 -6 -11 -1 -30 5
-16 5 -30 1 -30 -5 0 -5 -18 -1 -40 4 -22 4 -40 1 -40 -13 0 2 -85 17 -96 8
-6 27 -10 41 -8 14 1 33 2 42 3 13 1 16 16 15 95 -1 52 3 92 7 89 5 -3 3 5 -3
18 -10 17 -10 24 -1 27 6 2 8 8 5 14 -11 17 -11 288 -1 288 5 0 5 6 -1 13 -5
6 -8 24 -6 40 1 15 -2 27 -7 27 -6 0 -8 4 -5 8 7 11 -83 7 -114 -6 -25 -10
-78 -69 -72 -80 2 -3 -3 -9 -12 -14 -9 -5 -16 -15 -16 -21 0 -7 -9 -19 -20
-27 -11 -8 -20 -20 -20 -27 0 -7 -9 -17 -21 -23 -11 -7 -18 -18 -15 -25 3 -8
-6 -17 -25 -24 -19 -6 -29 -7 -29 0 0 5 -18 34 -40 64 -22 30 -40 58 -39 61 0
4 -12 15 -28 25 -15 10 -22 19 -15 19 7 0 3 10 -12 24 -13 14 -26 29 -27 35
-6 15 -79 28 -119 20z"/>
<path d="M4826 3312 c-3 -5 -16 -7 -29 -5 -30 6 -34 -8 -32 -97 1 -36 -2 -73
-8 -84 -6 -12 -5 -16 1 -13 8 5 10 -66 2 -83 -1 -3 -1 -9 0 -15 7 -30 4 -151
-5 -158 -7 -6 -6 -10 1 -13 11 -5 11 -105 0 -123 -3 -5 2 -15 11 -22 23 -20
442 -21 462 -1 17 16 19 78 4 93 -7 7 -73 11 -177 12 -91 0 -167 3 -168 6 0 3
-2 27 -3 52 -1 26 -5 51 -9 57 -11 19 19 30 82 30 34 0 65 2 68 5 3 3 19 1 35
-3 16 -5 31 -5 34 0 3 5 16 5 30 0 16 -6 25 -6 25 0 0 6 10 8 23 5 32 -7 48 7
49 44 2 53 -8 56 -179 56 -169 0 -163 -2 -164 55 -1 86 16 118 53 99 10 -6 19
-5 23 1 4 6 12 7 18 3 10 -7 70 -9 87 -3 21 7 41 7 46 -1 3 -5 10 -9 15 -9 6
0 8 3 6 8 -3 4 18 7 47 6 57 -1 71 8 71 46 0 24 -40 59 -52 46 -3 -3 -13 -1
-22 4 -10 5 -23 5 -31 0 -7 -4 -24 -4 -37 1 -12 5 -23 5 -23 1 0 -9 -182 -8
-197 1 -6 4 -13 1 -16 -5 -3 -10 -7 -10 -19 0 -9 7 -19 9 -22 4z"/>
<path d="M1880 2570 c-8 -5 -18 -6 -22 -4 -4 3 -8 1 -8 -4 0 -6 7 -13 16 -16
8 -3 12 -2 9 4 -7 11 23 9 41 -3 6 -3 14 -3 18 0 11 12 76 11 69 0 -4 -6 -1
-7 8 -1 13 8 36 8 162 1 20 -1 37 0 37 3 0 3 9 6 20 7 11 1 20 -4 20 -10 0 -7
4 -6 10 3 9 13 10 13 10 0 0 -9 3 -11 8 -5 9 12 62 14 62 3 0 -5 10 -4 21 3
12 6 24 7 28 3 9 -13 31 -15 31 -3 0 5 4 8 9 5 5 -3 25 -8 45 -10 33 -5 35 -4
24 14 -8 12 -16 16 -22 10 -5 -5 -18 -5 -32 0 -14 6 -24 6 -24 0 0 -5 -12 -5
-29 0 -19 5 -33 4 -40 -3 -6 -6 -11 -7 -11 -2 0 12 -166 11 -194 0 -11 -5 -17
-5 -14 1 7 10 -73 11 -90 0 -6 -3 -13 -2 -17 4 -4 6 -11 8 -16 4 -19 -11 -59
-11 -59 0 0 7 -3 8 -8 1 -8 -12 -22 -13 -37 -3 -6 4 -17 3 -25 -2z"/>
<path d="M2511 2571 c-11 -7 -11 -10 0 -17 15 -9 33 -11 154 -15 44 -2 83 -8
87 -14 5 -7 8 -6 8 1 0 8 15 11 43 8 23 -2 213 -6 422 -9 209 -3 414 -7 455
-10 41 -3 228 -7 415 -11 580 -9 600 -10 611 -17 6 -3 14 -3 18 0 8 9 46 12
46 4 0 -8 242 -8 255 0 6 3 38 14 73 24 34 11 62 22 62 27 0 4 6 5 14 2 7 -3
16 2 20 11 3 9 2 13 -3 10 -5 -3 -12 -1 -16 5 -4 7 -12 7 -24 0 -10 -5 -21 -7
-24 -4 -8 9 -61 11 -89 3 -16 -4 -28 -5 -28 -1 0 4 -11 7 -25 7 -14 0 -25 -4
-25 -8 0 -4 -8 -3 -19 2 -10 6 -20 9 -22 6 -7 -6 -89 -12 -89 -6 0 3 -11 6
-25 6 -14 0 -25 -2 -25 -5 0 -3 -20 -5 -45 -5 -25 0 -45 4 -45 8 0 4 -9 3 -20
-3 -14 -8 -20 -8 -20 0 0 6 -5 8 -12 3 -18 -10 -108 -11 -108 0 0 4 -5 5 -12
1 -16 -10 -108 -11 -108 -1 0 5 -5 5 -12 1 -16 -10 -58 -12 -58 -3 0 4 -12 4
-27 0 -16 -4 -40 -4 -55 0 -16 4 -28 4 -28 1 0 -6 -80 -8 -105 -2 -5 1 -12 2
-15 1 -19 -7 -218 -5 -227 2 -8 6 -13 6 -13 0 0 -11 -29 -11 -48 1 -7 4 -12 2
-12 -4 0 -6 -4 -9 -8 -6 -15 9 -62 15 -62 8 0 -10 -42 -8 -58 2 -7 4 -12 4
-12 -1 0 -10 -70 -10 -86 0 -6 3 -14 3 -18 0 -10 -11 -70 -9 -78 2 -5 6 -8 6
-8 -2 0 -8 -9 -9 -29 -3 -16 4 -31 7 -33 5 -7 -7 -78 -12 -78 -6 0 3 -11 6
-25 6 -14 0 -25 -3 -25 -6 0 -6 -59 -3 -67 4 -3 3 -16 2 -29 -3 -13 -5 -24 -6
-24 -1 0 8 -94 5 -117 -3 -6 -3 -14 -2 -17 1 -8 8 -66 10 -66 2 0 -3 -12 -4
-27 -2 -16 2 -34 4 -40 4 -7 -1 -19 -1 -25 -2 -7 0 -30 2 -50 4 -21 3 -36 2
-34 -2 7 -10 -58 -7 -66 4 -5 6 -11 5 -17 -4 -6 -9 -11 -10 -15 -2 -5 8 -13 8
-28 0 -11 -6 -18 -7 -15 -2 3 4 -8 8 -23 8 -15 0 -26 -4 -23 -8 3 -5 -4 -4
-15 2 -14 7 -23 8 -27 1 -4 -6 -13 -7 -24 -1 -9 5 -23 6 -30 2z"/>
</g>
</svg>
